# xmcd CD database file
#
# Track frame offsets:
#	150
#	16510
#	34285
#	50643
#
# Disc length: 907 seconds
#
# Revision: 2
# Processed by: cddbd v1.5.1PL0 Copyright (c) Steve Scherf et al.
# Submitted via: CDex 1.50beta8
#
DISCID=28038904
DTITLE=河辺千恵子 - キャンディベイベー
DYEAR=2005
DGENRE=JPop
TTITLE0=キャンディベイベー
TTITLE1=マーマメード
TTITLE2=キャンディベイベー (instrumental)
TTITLE3=マーマメード (instrumental)
EXTD=YEAR: 2005
EXTT0=
EXTT1=
EXTT2=
EXTT3=
PLAYORDER=
